Coordinates
version=1
nRows=18
nColumns=22
inDegrees=yes

Units are S.I. units (second, meters, Newtons, ...)
If the header above contains a line with 'inDegrees', this indicates whether rotational values are in degrees (yes) or radians (no).

endheader
time	pelvis_tilt	pelvis_list	pelvis_rotation	pelvis_tx	pelvis_ty	pelvis_tz	hip_flexion_r	hip_adduction_r	hip_rotation_r	knee_angle_r	ankle_angle_r	subtalar_angle_r	hip_flexion_l	hip_adduction_l	hip_rotation_l	knee_angle_l	ankle_angle_l	subtalar_angle_l	lumbar_extension	lumbar_bending	lumbar_rotation
      0.01000000	      4.44661361	      2.13641045	    176.90750235	      0.07633203	      0.95687250	      1.09521756	      8.20275161	      3.31945283	      2.50154005	    -12.74417141	      9.66833490	     -2.86242083	      6.93949176	     -3.35856573	     -2.49187193	    -12.97864904	     10.65388418	     -3.26827905	     -2.13194683	      1.66075655	     -1.99982838
      0.02000000	      4.45616909	      2.13933880	    176.91998154	      0.07622829	      0.95684788	      1.09521020	      8.18836015	      3.32135050	      2.49054785	    -12.71551243	      9.68827497	     -2.89342389	      6.94630820	     -3.36276709	     -2.48657519	    -12.98019036	     10.65078729	     -3.28441632	     -2.11738232	      1.66638338	     -1.97895864
      0.03000000	      4.46458854	      2.13870548	    176.94029309	      0.07611317	      0.95682401	      1.09521189	      8.17103209	      3.31835775	      2.47734149	    -12.68574445	      9.69613737	     -2.92219087	      6.95571120	     -3.36198517	     -2.47181844	    -12.98813906	     10.65292477	     -3.29992724	     -2.10623774	      1.66939819	     -1.96915447
      0.04000000	      4.47276567	      2.14796135	    176.98160189	      0.07598087	      0.95679879	      1.09524190	      8.14798662	      3.32361492	      2.44216574	    -12.65009887	      9.69219707	     -3.01042113	      6.96731125	     -3.36785270	     -2.41675048	    -12.99930730	     10.65856658	     -3.34043392	     -2.09621955	      1.68617975	     -1.99850589
      0.05000000	      4.48266332	      2.14565721	    176.99400479	      0.07585480	      0.95677292	      1.09522963	      8.13657782	      3.31992873	      2.42816279	    -12.62793229	      9.69778003	     -3.01842323	      6.97383274	     -3.36634669	     -2.41127097	    -13.00258151	     10.65823264	     -3.34227091	     -2.09161602	      1.68731486	     -1.96551307
      0.06000000	      4.49392963	      2.14462841	    177.01047487	      0.07571829	      0.95674485	      1.09522243	      8.12306707	      3.31713060	      2.41536428	    -12.60128361	      9.70599328	     -3.02685109	      6.98068568	     -3.36560370	     -2.39945730	    -13.00492150	     10.66161207	     -3.34408118	     -2.08772260	      1.69155239	     -1.93914671
      0.07000000	      4.50367009	      2.15089662	    177.03916827	      0.07558154	      0.95671710	      1.09524354	      8.10355616	      3.32003831	      2.39548276	    -12.56835605	      9.71265709	     -3.05649720	      6.98608484	     -3.36906955	     -2.35941696	    -13.00557883	     10.67599708	     -3.34809902	     -2.09083542	      1.70813304	     -1.93423092
      0.08000000	      4.51507815	      2.14908678	    177.05291803	      0.07546810	      0.95668949	      1.09523240	      8.09793019	      3.31732321	      2.38346612	    -12.55201886	      9.71680185	     -3.06256509	      6.99368039	     -3.36812099	     -2.35083347	    -13.00646386	     10.67658345	     -3.34766329	     -2.10098715	      1.71250540	     -1.90271956
      0.09000000	      4.52704838	      2.14796133	    177.06788674	      0.07535924	      0.95666237	      1.09522730	      8.09536485	      3.31568872	      2.37524755	    -12.53935066	      9.72243114	     -3.06806089	      7.00010257	     -3.36717311	     -2.33966845	    -13.00392164	     10.67957474	     -3.34724571	     -2.11493282	      1.72070673	     -1.87585268
      0.10000000	      4.53902327	      2.14751088	    177.08082898	      0.07526394	      0.95663535	      1.09522287	      8.09651491	      3.31505516	      2.36725005	    -12.53102745	      9.72844621	     -3.07449700	      7.00618413	     -3.36669136	     -2.32492170	    -12.99986429	     10.68371981	     -3.34632132	     -2.13529895	      1.73209207	     -1.85101426
      0.11000000	      4.55076587	      2.14728143	    177.09431625	      0.07518022	      0.95661174	      1.09522088	      8.10219721	      3.31491476	      2.36066268	    -12.53024042	      9.73334071	     -3.08113782	      7.01181854	     -3.36630363	     -2.31075830	    -12.99401324	     10.68749207	     -3.34464360	     -2.16214959	      1.74647940	     -1.83128639
      0.12000000	      4.56237592	      2.14691126	    177.10659146	      0.07510796	      0.95659030	      1.09521642	      8.11212396	      3.31538792	      2.35437537	    -12.53572449	      9.73711992	     -3.08781390	      7.01762468	     -3.36601067	     -2.29792563	    -12.98716196	     10.68999291	     -3.34210227	     -2.19509644	      1.76335667	     -1.81825990
      0.13000000	      4.57448634	      2.14605898	    177.11845346	      0.07504251	      0.95657095	      1.09521235	      8.12523662	      3.31576647	      2.34820095	    -12.54467241	      9.73995751	     -3.09408861	      7.02430941	     -3.36524033	     -2.28719131	    -12.98003137	     10.69091295	     -3.33912509	     -2.23281638	      1.78252161	     -1.81158935
      0.14000000	      4.58730597	      2.14505211	    177.12964542	      0.07498032	      0.95655184	      1.09520973	      8.14072358	      3.31621486	      2.34183541	    -12.55590794	      9.74215129	     -3.09990816	      7.03240399	     -3.36408771	     -2.27752808	    -12.97348376	     10.69040940	     -3.33629032	     -2.27440599	      1.80304106	     -1.80926389
      0.15000000	      4.60094703	      2.14412125	    177.13982886	      0.07492551	      0.95653416	      1.09520347	      8.15925566	      3.31726972	      2.33466635	    -12.56982794	      9.74383996	     -3.10578725	      7.04234652	     -3.36331390	     -2.26779818	    -12.96803469	     10.68861414	     -3.33389115	     -2.32016384	      1.82418654	     -1.81025966
      0.16000000	      4.61575637	      2.14315068	    177.14931993	      0.07487452	      0.95651560	      1.09519443	      8.18069630	      3.31861459	      2.32575631	    -12.58587713	      9.74510930	     -3.11234534	      7.05467785	     -3.36288417	     -2.25778096	    -12.96440240	     10.68573652	     -3.33219222	     -2.36743140	      1.84539500	     -1.81319110
      0.17000000	      4.63246990	      2.14199349	    177.15824529	      0.07482631	      0.95649704	      1.09518289	      8.20482610	      3.32026076	      2.31626998	    -12.60290347	      9.74585867	     -3.11930104	      7.07021317	     -3.36234314	     -2.24808409	    -12.96246128	     10.68191145	     -3.33141935	     -2.41401920	      1.86530808	     -1.81645234
      0.18000000	      4.65103827	      2.14111462	    177.16713498	      0.07477925	      0.95647613	      1.09516984	      8.23269871	      3.32263999	      2.30533108	    -12.62302877	      9.74648192	     -3.12719572	      7.08964701	     -3.36204796	     -2.23732529	    -12.96368387	     10.67691807	     -3.33154060	     -2.45734451	      1.88382603	     -1.81907480
